<?xml version="1.0" encoding="utf-8"?>
<svg version="1.1" xmlns:xlink="http://www.w3.org/1999/xlink" width="220px" height="140px" xmlns="http://www.w3.org/2000/svg">
  <g transform="matrix(1 0 0 1 -83 -133 )">
    <path d="M 103 272.5  L 293 272.5  C 298.32 272.5  302.5 268.32  302.5 263  L 302.5 153  C 302.5 149.019603773678  300.16005511139 145.677374335159  296.753426824863 144.246573175137  C 295.804162307016 141.986446856925  294.013553143075 140.195837692984  291.753426824863 139.246573175137  C 290.322625664841 135.83994488861  286.980396226322 133.5  283 133.5  L 93 133.5  C 87.68 133.5  83.5 137.68  83.5 143  L 83.5 253  C 83.5 256.980396226322  85.8399448886101 260.322625664841  89.2465731751367 261.753426824863  C 90.1958376929841 264.013553143075  91.9864468569247 265.804162307016  94.2465731751367 266.753426824863  C 95.6773743351592 270.16005511139  99.0196037736782 272.5  103 272.5  Z " fill-rule="nonzero" fill="#ffffff" stroke="none" />
    <path d="M 103.5 272.5  L 292.5 272.5  C 298.1 272.5  302.5 268.1  302.5 262.5  L 302.5 153.5  C 302.5 149.382075431273  300.120786603431 145.913027243428  296.634752186914 144.365247813086  C 295.644031495375 142.13386628665  293.86613371335 140.355968504626  291.634752186914 139.365247813086  C 290.086972756572 135.879213396569  286.617924568727 133.5  282.5 133.5  L 93.5 133.5  C 87.9 133.5  83.5 137.9  83.5 143.5  L 83.5 252.5  C 83.5 256.617924568727  85.8792133965687 260.086972756572  89.365247813086 261.634752186914  C 90.3559685046255 263.86613371335  92.1338662866505 265.644031495375  94.365247813086 266.634752186914  C 95.9130272434282 270.120786603431  99.3820754312729 272.5  103.5 272.5  Z " stroke-width="1" stroke="#000000" fill="none" />
    <path d="M 296.678014577568 144.071985422432  C 297.207220379431 145.263905668009  297.5 146.592028340291  297.5 148  L 297.5 257.5  C 297.5 263.1  293.1 267.5  287.5 267.5  L 98 267.5  C 94.0879716597093 267.5  90.7923758812568 265.23974727326  89.3219854224317 261.928014577568  M 291.678014577568 139.071985422432  C 292.207220379431 140.263905668009  292.5 141.592028340291  292.5 143  L 292.5 252.499  C 292.5 258.099  288.1 262.499  282.5 262.499  L 93 262.5  C 91.5920283402907 262.5  90.2639056680094 262.207220379431  89.0719854224317 261.678014577568  " stroke-width="1" stroke="#000000" fill="none" />
  </g>
</svg>