<?xml version="1.0" encoding="utf-8"?>
<svg version="1.1" xmlns:xlink="http://www.w3.org/1999/xlink" width="220px" height="160px" xmlns="http://www.w3.org/2000/svg">
  <g transform="matrix(1 0 0 1 -83 -1868 )">
    <path d="M 103 2027.5  L 293 2027.5  C 298.32 2027.5  302.5 2023.32  302.5 2018  L 302.5 1888  C 302.5 1884.01960377368  300.16005511139 1880.67737433516  296.753426824863 1879.24657317514  C 295.804162307016 1876.98644685692  294.013553143075 1875.19583769298  291.753426824863 1874.24657317514  C 290.322625664841 1870.83994488861  286.980396226322 1868.5  283 1868.5  L 93 1868.5  C 87.68 1868.5  83.5 1872.68  83.5 1878  L 83.5 2008  C 83.5 2011.98039622632  85.8399448886101 2015.32262566484  89.2465731751367 2016.75342682486  C 90.1958376929841 2019.01355314308  91.9864468569247 2020.80416230702  94.2465731751367 2021.75342682486  C 95.6773743351592 2025.16005511139  99.0196037736782 2027.5  103 2027.5  Z " fill-rule="nonzero" fill="#ffffff" stroke="none" />
    <path d="M 103.5 2027.5  L 292.5 2027.5  C 298.1 2027.5  302.5 2023.1  302.5 2017.5  L 302.5 1888.5  C 302.5 1884.38207543127  300.120786603431 1880.91302724343  296.634752186914 1879.36524781309  C 295.644031495375 1877.13386628665  293.86613371335 1875.35596850463  291.634752186914 1874.36524781309  C 290.086972756572 1870.87921339657  286.617924568727 1868.5  282.5 1868.5  L 93.5 1868.5  C 87.9 1868.5  83.5 1872.9  83.5 1878.5  L 83.5 2007.5  C 83.5 2011.61792456873  85.8792133965687 2015.08697275657  89.365247813086 2016.63475218691  C 90.3559685046255 2018.86613371335  92.1338662866505 2020.64403149537  94.365247813086 2021.63475218691  C 95.9130272434282 2025.12078660343  99.3820754312729 2027.5  103.5 2027.5  Z " stroke-width="1" stroke="#000000" fill="none" />
    <path d="M 296.678014577568 1879.07198542243  C 297.207220379431 1880.26390566801  297.5 1881.59202834029  297.5 1883  L 297.5 2012.5  C 297.5 2018.1  293.1 2022.5  287.5 2022.5  L 98 2022.5  C 94.0879716597093 2022.5  90.7923758812568 2020.23974727326  89.3219854224317 2016.92801457757  M 291.678014577568 1874.07198542243  C 292.207220379431 1875.26390566801  292.5 1876.59202834029  292.5 1878  L 292.5 2007.499  C 292.5 2013.099  288.1 2017.499  282.5 2017.499  L 93 2017.5  C 91.5920283402907 2017.5  90.2639056680094 2017.20722037943  89.0719854224317 2016.67801457757  " stroke-width="1" stroke="#000000" fill="none" />
  </g>
</svg>