<?xml version="1.0" encoding="utf-8"?>
<svg version="1.1" xmlns:xlink="http://www.w3.org/1999/xlink" width="220px" height="330px" xmlns="http://www.w3.org/2000/svg">
  <g transform="matrix(1 0 0 1 -83 -2650 )">
    <path d="M 103 2979.5  L 293 2979.5  C 298.32 2979.5  302.5 2975.32  302.5 2970  L 302.5 2670  C 302.5 2666.01960377368  300.16005511139 2662.67737433516  296.753426824863 2661.24657317514  C 295.804162307016 2658.98644685692  294.013553143075 2657.19583769298  291.753426824863 2656.24657317514  C 290.322625664841 2652.83994488861  286.980396226322 2650.5  283 2650.5  L 93 2650.5  C 87.68 2650.5  83.5 2654.68  83.5 2660  L 83.5 2960  C 83.5 2963.98039622632  85.8399448886101 2967.32262566484  89.2465731751367 2968.75342682486  C 90.1958376929841 2971.01355314308  91.9864468569248 2972.80416230702  94.2465731751367 2973.75342682486  C 95.6773743351592 2977.16005511139  99.0196037736782 2979.5  103 2979.5  Z " fill-rule="nonzero" fill="#ffffff" stroke="none" />
    <path d="M 103.5 2979.5  L 292.5 2979.5  C 298.1 2979.5  302.5 2975.1  302.5 2969.5  L 302.5 2670.5  C 302.5 2666.38207543128  300.120786603435 2662.91302724343  296.634752186922 2661.36524781309  C 295.644031495378 2659.13386628665  293.866133713351 2657.35596850463  291.634752186914 2656.36524781309  C 290.086972756572 2652.87921339657  286.617924568727 2650.5  282.5 2650.5  L 93.5 2650.5  C 87.9 2650.5  83.5 2654.9  83.5 2660.5  L 83.5 2959.5  C 83.5 2963.61792456872  85.8792133965653 2967.08697275657  89.3652478130785 2968.63475218691  C 90.3559685046225 2970.86613371335  92.1338662866486 2972.64403149537  94.365247813086 2973.63475218691  C 95.9130272434282 2977.12078660343  99.3820754312729 2979.5  103.5 2979.5  Z " stroke-width="1" stroke="#000000" fill="none" />
    <path d="M 296.678014577571 2661.07198542244  C 297.207220379432 2662.26390566801  297.5 2663.59202834029  297.5 2665  L 297.5 2964.5  C 297.5 2970.1  293.1 2974.5  287.5 2974.5  L 98 2974.5  C 94.0879716597071 2974.5  90.7923758812532 2972.23974727326  89.3219854224293 2968.92801457756  M 291.678014577568 2656.07198542243  C 292.207220379431 2657.26390566801  292.5 2658.59202834029  292.5 2660  L 292.5 2959.499  C 292.5 2965.099  288.1 2969.499  282.5 2969.499  L 93 2969.5  C 91.5920283402879 2969.5  90.263905668004 2969.20722037943  89.0719854224245 2968.67801457757  " stroke-width="1" stroke="#000000" fill="none" />
  </g>
</svg>