<?xml version="1.0" encoding="utf-8"?>
<svg version="1.1" xmlns:xlink="http://www.w3.org/1999/xlink" width="35px" height="35px" xmlns="http://www.w3.org/2000/svg">
  <defs>
    <filter x="888px" y="2985px" width="35px" height="35px" filterUnits="userSpaceOnUse" id="filter9">
      <feOffset dx="5" dy="5" in="SourceAlpha" result="shadowOffsetInner" />
      <feGaussianBlur stdDeviation="2.5" in="shadowOffsetInner" result="shadowGaussian" />
      <feComposite in2="shadowGaussian" operator="atop" in="SourceAlpha" result="shadowComposite" />
      <feColorMatrix type="matrix" values="0 0 0 0 0.333333333333333  0 0 0 0 0.333333333333333  0 0 0 0 0.333333333333333  0 0 0 0.349019607843137 0  " in="shadowComposite" />
    </filter>
    <g id="widget10">
      <path d="M 900.5 2987  C 906.38 2987  911 2991.62  911 2997.5  C 911 3003.38  906.38 3008  900.5 3008  C 894.62 3008  890 3003.38  890 2997.5  C 890 2991.62  894.62 2987  900.5 2987  Z " fill-rule="nonzero" fill="#d9001b" stroke="none" />
      <path d="M 900.5 2986.5  C 906.66 2986.5  911.5 2991.34  911.5 2997.5  C 911.5 3003.66  906.66 3008.5  900.5 3008.5  C 894.34 3008.5  889.5 3003.66  889.5 2997.5  C 889.5 2991.34  894.34 2986.5  900.5 2986.5  Z " stroke-width="3" stroke="#ffffff" fill="none" />
    </g>
  </defs>
  <g transform="matrix(1 0 0 1 -888 -2985 )">
    <use xlink:href="#widget10" filter="url(#filter9)" />
    <use xlink:href="#widget10" />
  </g>
</svg>