<?xml version="1.0" encoding="utf-8"?>
<svg version="1.1" xmlns:xlink="http://www.w3.org/1999/xlink" width="176px" height="116px" xmlns="http://www.w3.org/2000/svg">
  <defs>
    <mask fill="white" id="clip71">
      <path d="M 150 0  L 0 0  L 0 90  L 150 90  L 150 0  Z " fill-rule="evenodd" />
    </mask>
    <filter x="730px" y="3002px" width="177px" height="117px" filterUnits="userSpaceOnUse" id="filter72">
      <feOffset dx="5" dy="5" in="SourceAlpha" result="shadowOffsetInner" />
      <feGaussianBlur stdDeviation="5.5" in="shadowOffsetInner" result="shadowGaussian" />
      <feComposite in2="shadowGaussian" operator="atop" in="SourceAlpha" result="shadowComposite" />
      <feColorMatrix type="matrix" values="0 0 0 0 0.333333333333333  0 0 0 0 0.333333333333333  0 0 0 0 0.333333333333333  0 0 0 0.349019607843137 0  " in="shadowComposite" />
    </filter>
    <g id="widget73">
      <path d="M 150 0  L 0 0  L 0 90  L 150 90  L 150 0  Z " fill-rule="nonzero" fill="#8400ff" stroke="none" transform="matrix(1 0 0 1 738 3010 )" />
      <path d="M 150 0  L 0 0  L 0 90  L 150 90  L 150 0  Z " stroke-width="6" stroke="#ffffff" fill="none" transform="matrix(1 0 0 1 738 3010 )" mask="url(#clip71)" />
      <path d="M 15.5 0  L 15.5 90  M 134.5 0  L 134.5 90  " stroke-width="3" stroke="#ffffff" fill="none" transform="matrix(1 0 0 1 738 3010 )" mask="url(#clip71)" />
    </g>
  </defs>
  <g transform="matrix(1 0 0 1 -730.5 -3002.5 )">
    <use xlink:href="#widget73" filter="url(#filter72)" />
    <use xlink:href="#widget73" />
  </g>
</svg>