<?xml version="1.0" encoding="utf-8"?>
<svg version="1.1" xmlns:xlink="http://www.w3.org/1999/xlink" width="34px" height="34px" preserveAspectRatio="xMinYMid meet" viewBox="698 3179  34 32" xmlns="http://www.w3.org/2000/svg">
  <defs>
    <mask fill="white" id="clip250">
      <path d="M 665 2970  L 703 2970  L 703 3001  L 665 3001  Z M 665 2772  L 734 2772  L 734 3212  L 665 3212  Z " fill-rule="evenodd" />
    </mask>
  </defs>
  <path d="M 717 2775  L 688.561643835616 2775  A 5 5 0 0 0 683.561643835616 2780 L 683.561643835616 2912  A 3 3 0 0 1 686.561643835616 2915 A 3 3 0 0 1 683.561643835616 2918 L 683.561643835616 3190  A 5 5 0 0 0 688.561643835616 3195 L 715 3195  " stroke-width="2" stroke-dasharray="6,2" stroke="#ffffff" fill="none" mask="url(#clip250)" />
  <path d="M 707.6 3203  L 717 3195  L 707.6 3187  L 711.2 3195  L 707.6 3203  Z " fill-rule="nonzero" fill="#ffffff" stroke="none" mask="url(#clip250)" />
</svg>