<?xml version="1.0" encoding="utf-8"?>
<svg version="1.1" xmlns:xlink="http://www.w3.org/1999/xlink" width="18px" height="21px" xmlns="http://www.w3.org/2000/svg">
  <g transform="matrix(1 0 0 1 -10 -13 )">
    <path d="M 18 2  C 18 0.895  17.105 0  16 0  L 2 0  C 0.895 0  0 0.895  0 2  L 0 16  C 0 17.105  0.895 18  2 18  L 6 18  L 9 21  L 12 18  L 16 18  C 17.105 18  18 17.105  18 16  L 18 2  Z M 15 9  L 10.875 10.875  L 9 15  L 7.125 10.875  L 3 9  L 7.125 7.125  L 9 3  L 10.875 7.125  L 15 9  Z " fill-rule="nonzero" fill="#000000" stroke="none" transform="matrix(1 0 0 1 10 13 )" />
  </g>
</svg>